<svg width="265" height="49" viewBox="0 0 265 49" fill="none" xmlns="http://www.w3.org/2000/svg">
<g clip-path="url(#clip0_0_1)">
<path d="M23.105 0H0V23.105H23.105V0Z" fill="white"/>
<path d="M48.745 0H25.64V23.105H48.745V0Z" fill="white"/>
<path d="M23.105 25.642H0V48.747H23.105V25.642Z" fill="white"/>
<path d="M48.745 25.642H25.64V48.747H48.745V25.642Z" fill="white"/>
<path d="M94.3477 13.793L87.4395 39H82.6934L77.9648 21.5977C77.8594 21.1875 77.7715 20.7598 77.7012 20.3145C77.6309 19.8574 77.584 19.3887 77.5605 18.9082H77.4902C77.4551 19.4004 77.3965 19.8691 77.3145 20.3145C77.2441 20.7598 77.1504 21.1816 77.0332 21.5801L72.2344 39H67.4004L60.3516 13.793H64.9395L69.4922 31.9863C69.5859 32.3613 69.6621 32.7715 69.7207 33.2168C69.791 33.6621 69.8379 34.1484 69.8613 34.6758H69.9668C69.9902 34.2891 70.043 33.873 70.125 33.4277C70.2188 32.9707 70.3418 32.4785 70.4941 31.9512L75.6094 13.793H79.916L84.6973 32.127C84.791 32.4434 84.873 32.8125 84.9434 33.2344C85.0137 33.6562 85.0723 34.125 85.1191 34.6406H85.1895C85.2129 34.2539 85.2598 33.8496 85.3301 33.4277C85.4121 32.9941 85.5059 32.5312 85.6113 32.0391L90.0059 13.793H94.3477ZM99.498 17.5195C98.748 17.5195 98.127 17.2793 97.6348 16.7988C97.1426 16.3184 96.8965 15.7266 96.8965 15.0234C96.8965 14.2969 97.1426 13.6992 97.6348 13.2305C98.127 12.7617 98.748 12.5273 99.498 12.5273C100.26 12.5273 100.887 12.7617 101.379 13.2305C101.871 13.6992 102.117 14.2969 102.117 15.0234C102.117 15.7383 101.871 16.3359 101.379 16.8164C100.887 17.2852 100.26 17.5195 99.498 17.5195ZM101.52 39H97.4238V21H101.52V39ZM122.895 39H118.816V28.8574C118.816 27.1816 118.512 25.9277 117.902 25.0957C117.293 24.252 116.379 23.8301 115.16 23.8301C113.941 23.8301 112.934 24.293 112.137 25.2188C111.34 26.1445 110.941 27.3164 110.941 28.7344V39H106.846V21H110.941V23.918H111.012C111.68 22.8047 112.5 21.9727 113.473 21.4219C114.445 20.8594 115.576 20.5781 116.865 20.5781C118.834 20.5781 120.328 21.2051 121.348 22.459C122.379 23.7129 122.895 25.5586 122.895 27.9961V39ZM140.086 36.2051C139.441 37.2832 138.627 38.0918 137.643 38.6309C136.658 39.1582 135.504 39.4219 134.18 39.4219C131.93 39.4219 130.119 38.625 128.748 37.0312C127.389 35.4258 126.709 33.2227 126.709 30.4219C126.709 27.4453 127.459 25.0605 128.959 23.2676C130.471 21.4746 132.463 20.5781 134.936 20.5781C136.143 20.5781 137.174 20.8066 138.029 21.2637C138.885 21.709 139.57 22.3887 140.086 23.3027H140.156V12.3516H144.252V39H140.156V36.2051H140.086ZM130.875 30.2637C130.875 32.1152 131.291 33.5625 132.123 34.6055C132.955 35.6484 134.086 36.1699 135.516 36.1699C136.91 36.1699 138.041 35.6484 138.908 34.6055C139.775 33.5625 140.209 32.2207 140.209 30.5801V28.5234C140.209 27.1875 139.793 26.0742 138.961 25.1836C138.129 24.2812 137.062 23.8301 135.762 23.8301C134.238 23.8301 133.043 24.4043 132.176 25.5527C131.309 26.6895 130.875 28.2598 130.875 30.2637ZM157.559 39.4219C154.746 39.4219 152.514 38.584 150.861 36.9082C149.221 35.2207 148.4 32.9648 148.4 30.1406C148.412 27.1523 149.268 24.8145 150.967 23.127C152.666 21.4277 154.98 20.5781 157.91 20.5781C160.734 20.5664 162.938 21.3984 164.52 23.0742C166.113 24.7383 166.91 26.9941 166.91 29.8418C166.91 32.7715 166.066 35.1035 164.379 36.8379C162.703 38.5605 160.43 39.4219 157.559 39.4219ZM157.752 36.1699C159.381 36.1699 160.617 35.6367 161.461 34.5703C162.316 33.5039 162.744 31.9629 162.744 29.9473C162.744 27.9551 162.316 26.4375 161.461 25.3945C160.605 24.3516 159.363 23.8301 157.734 23.8301C156.129 23.8301 154.863 24.3809 153.938 25.4824C153.023 26.584 152.566 28.1074 152.566 30.0527C152.566 32.0098 153.023 33.5215 153.938 34.5879C154.852 35.6426 156.123 36.1699 157.752 36.1699ZM195.281 21L189.99 39H185.719L182.467 27.1523C182.373 26.8125 182.309 26.4961 182.273 26.2031C182.238 25.8984 182.209 25.5703 182.186 25.2188H182.098C182.074 25.5938 182.033 25.9277 181.975 26.2207C181.916 26.502 181.84 26.8008 181.746 27.1172L178.248 39H174.064L168.773 21H172.992L176.156 33.7266C176.215 33.9609 176.268 34.2305 176.314 34.5352C176.361 34.8281 176.396 35.1562 176.42 35.5195H176.543C176.566 35.1914 176.602 34.875 176.648 34.5703C176.707 34.2656 176.777 33.9668 176.859 33.6738L180.533 21H184.365L187.652 33.7441C187.699 33.9316 187.74 34.1777 187.775 34.4824C187.822 34.7754 187.869 35.1328 187.916 35.5547H188.039C188.062 35.2734 188.098 34.9805 188.145 34.6758C188.191 34.3711 188.256 34.0605 188.338 33.7441L191.396 21H195.281ZM196.582 37.5586L198.357 34.6758C199.061 35.168 199.805 35.5664 200.59 35.8711C201.387 36.1641 202.248 36.3105 203.174 36.3105C204.182 36.3105 204.961 36.1289 205.512 35.7656C206.074 35.3906 206.355 34.834 206.355 34.0957C206.355 33.5098 206.121 33.0234 205.652 32.6367C205.195 32.2383 204.41 31.9102 203.297 31.6523C201.047 31.125 199.465 30.4277 198.551 29.5605C197.648 28.6934 197.197 27.5508 197.197 26.1328C197.197 24.5039 197.83 23.1738 199.096 22.1426C200.361 21.0996 202.02 20.5781 204.07 20.5781C205.09 20.5781 206.062 20.7129 206.988 20.9824C207.914 21.2402 208.816 21.6562 209.695 22.2305L208.043 25.043C207.27 24.5508 206.561 24.1992 205.916 23.9883C205.271 23.7773 204.609 23.6719 203.93 23.6719C202.969 23.6719 202.219 23.8535 201.68 24.2168C201.152 24.5684 200.889 25.0605 200.889 25.6934C200.889 26.3613 201.158 26.8594 201.697 27.1875C202.248 27.5039 203.168 27.8145 204.457 28.1191C206.402 28.5879 207.826 29.2676 208.729 30.1582C209.631 31.0371 210.082 32.2148 210.082 33.6914C210.082 35.4375 209.443 36.832 208.166 37.875C206.9 38.9062 205.184 39.4219 203.016 39.4219C201.844 39.4219 200.719 39.2695 199.641 38.9648C198.574 38.6484 197.555 38.1797 196.582 37.5586ZM231.633 39H227.555V18.4863C227.027 18.8848 226.283 19.3008 225.322 19.7344C224.361 20.1562 223.436 20.4961 222.545 20.7539L221.42 17.3613C222.885 16.9629 224.355 16.3887 225.832 15.6387C227.309 14.877 228.539 14.0742 229.523 13.2305H231.633V39ZM237.838 39V37.4531C237.838 36.2812 237.996 35.2383 238.312 34.3242C238.641 33.4102 239.104 32.5664 239.701 31.793C240.287 31.0195 240.996 30.293 241.828 29.6133C242.66 28.9219 243.58 28.207 244.588 27.4688C245.42 26.8828 246.123 26.3203 246.697 25.7812C247.283 25.2305 247.775 24.6914 248.174 24.1641C248.549 23.6836 248.83 23.1504 249.018 22.5645C249.205 21.9668 249.299 21.3281 249.299 20.6484C249.299 19.5 248.959 18.5566 248.279 17.8184C247.6 17.0801 246.639 16.7109 245.396 16.7109C244.471 16.7109 243.498 16.9102 242.479 17.3086C241.459 17.6953 240.486 18.2988 239.561 19.1191L237.398 16.6055C238.641 15.4922 239.947 14.6777 241.318 14.1621C242.689 13.6348 244.207 13.3711 245.871 13.3711C248.262 13.3711 250.119 14.0449 251.443 15.3926C252.768 16.7402 253.43 18.334 253.43 20.1738C253.43 21.3574 253.277 22.3887 252.973 23.2676C252.668 24.1348 252.258 24.9141 251.742 25.6055C251.215 26.3438 250.588 27.0352 249.861 27.6797C249.146 28.3242 248.344 28.9629 247.453 29.5957C246.551 30.2285 245.771 30.7969 245.115 31.3008C244.459 31.793 243.92 32.2617 243.498 32.707C243.064 33.1641 242.742 33.6152 242.531 34.0605C242.332 34.5059 242.232 34.9863 242.232 35.502H253.939V39H237.838Z" fill="white"/>
</g>
<defs>
<clipPath id="clip0_0_1">
<rect width="264.58" height="48.746" fill="white"/>
</clipPath>
</defs>
</svg>
